<svg width="24" height="25" viewBox="0 0 24 25" fill="none" xmlns="http://www.w3.org/2000/svg">
<g opacity="0.5">
<path d="M8 4.26965V16.2697C8 16.8001 8.21071 17.3088 8.58579 17.6839C8.96086 18.0589 9.46957 18.2697 10 18.2697H18C18.5304 18.2697 19.0391 18.0589 19.4142 17.6839C19.7893 17.3088 20 16.8001 20 16.2697V7.51165C20 7.24521 19.9467 6.98147 19.8433 6.7359C19.7399 6.49033 19.5885 6.26789 19.398 6.08165L16.083 2.83965C15.7094 2.47431 15.2076 2.26972 14.685 2.26965H10C9.46957 2.26965 8.96086 2.48037 8.58579 2.85544C8.21071 3.23051 8 3.73922 8 4.26965Z" stroke="black" stroke-linecap="round" stroke-linejoin="round"/>
<path d="M16 18.2697V20.2697C16 20.8001 15.7893 21.3088 15.4142 21.6839C15.0391 22.0589 14.5304 22.2697 14 22.2697H6C5.46957 22.2697 4.96086 22.0589 4.58579 21.6839C4.21071 21.3088 4 20.8001 4 20.2697V9.26965C4 8.73922 4.21071 8.23051 4.58579 7.85544C4.96086 7.48037 5.46957 7.26965 6 7.26965H8" stroke="black" stroke-linecap="round" stroke-linejoin="round"/>
</g>
</svg>
